<mxfile host="app.diagrams.net" modified="2024-07-16T09:12:44.467Z" agent="Mozilla/5.0 (Windows NT 10.0; Win64; x64; rv:128.0) Gecko/20100101 Firefox/128.0" version="24.5.4" etag="orM5SICt3W9TNbCR7N9U" type="github">
  <diagram name="Страница — 1" id="lBeEptGMhe-WrmiIBoQS">
    <mxGraphModel>
      <root>
        <mxCell id="0" />
        <mxCell id="1" parent="0" />
      </root>
    </mxGraphModel>
  </diagram>
</mxfile>
